# xmcd
#
# Track frame offsets: 
#        150
#        20025
#        38697
#        56952
#        74256
#        92099
#        112406
#        132742
#        151122
#        168956
#        184561
#        206664
#        224332
#        245271
#
# Disc length: 3517 seconds
#
# Revision: 0
# Processed by: cddbd v1.5.2PL0 Copyright (c) Steve Scherf et al.
# Submitted via: ExactAudioCopy v0.99pb4
#
DISCID=ce0dbb0e
DTITLE=Various Artist - R-Siam จัมโบ้ฮิต 2008
DYEAR=2008
DGENRE=Country
TTITLE0=แมลงเม่าเหงาใจ - บ่าววี
TTITLE1=หนอนผีเสื้อ - หนู มิเตอร
TTITLE2=น้ำใต้เข่า - หญิง ธิติกานต์
TTITLE3=นางฟ้า - ทรงกลด ฌามา
TTITLE4=โนราห์หลงกรุง - เมฆา
TTITLE5=ง่ายเกินไป - บิว กัลยาณี
TTITLE6=ก้อนเกลือยังหวาน - บ่าววี and บิว กัลยาณี
TTITLE7=นับหนึ่งไปด้วยกัน - หลวงไก่ and อันดา
TTITLE8=สักคนบนฟ้า - ทราย ดาวรุ่งลูกทุ่งไทยแลนด์
TTITLE9=รางวัลปลอบใจ - ฟิลม์ ณรินทร์ทิพย์
TTITLE10=อภัยเสมอรักเธอตลอด - โปงลางสะออน
TTITLE11=ของขวัญที่น้องขอ - กระแต
TTITLE12=สถานีน้ำตา - พิทักษ์
TTITLE13=บ่ว่างรับสาย - สิงหา
EXTD=
EXTT0=
EXTT1=
EXTT2=
EXTT3=
EXTT4=
EXTT5=
EXTT6=
EXTT7=
EXTT8=
EXTT9=
EXTT10=
EXTT11=
EXTT12=
EXTT13=
PLAYORDER=
